<svg width="960" height="443" viewBox="0 0 960 443" fill="none" xmlns="http://www.w3.org/2000/svg">
<path d="M958.667 432.564C918.973 449.291 813.895 453.577 711.129 336.909C582.672 191.075 248.871 200.484 135.416 148.736C44.6524 107.338 8.20941 33.2182 1.33337 1.33325" stroke="#5B95D2" stroke-width="1.33333"/>
<path d="M958.667 265.539C927.463 275.785 844.856 278.412 764.068 206.932C663.083 117.583 400.669 123.348 311.477 91.6433C240.125 66.2795 211.476 20.8685 206.069 1.33325" stroke="#5B95D2" stroke-width="1.33333"/>
<path d="M958.667 134.955C935.636 140.137 874.671 141.465 815.045 105.314C740.515 60.1265 546.845 63.0418 481.019 47.0073C428.357 34.1797 407.213 11.2131 403.224 1.33325" stroke="#5B95D2" stroke-width="1.33333"/>
<path d="M958.667 341.459C923.375 354.652 829.948 358.032 738.579 266.013C624.367 150.988 327.581 158.409 226.708 117.594C146.008 84.9423 113.607 26.4819 107.493 1.33325" stroke="#5B95D2" stroke-width="1.33333"/>
<path d="M958.667 210.875C930.92 219.003 857.469 221.085 785.636 164.395C695.843 93.5315 462.512 98.1034 383.207 72.9585C319.761 52.8425 294.288 16.8266 289.481 1.33325" stroke="#5B95D2" stroke-width="1.33333"/>
<path d="M958.667 68.1436C941.375 70.7351 895.597 71.3991 850.828 53.3239C794.867 30.7298 649.449 32.1875 600.023 24.1703C560.483 17.7565 544.607 6.27317 541.611 1.33325" stroke="#5B95D2" stroke-width="1.33333"/>
</svg>
