<svg width="960" height="443" viewBox="0 0 960 443" fill="none" xmlns="http://www.w3.org/2000/svg">
<path d="M958.667 432.564C918.973 449.291 813.895 453.577 711.129 336.909C582.672 191.075 248.871 200.484 135.416 148.736C44.6524 107.338 8.20941 33.2183 1.33337 1.33337" stroke="#5B95D2" stroke-width="1.33333"/>
<path d="M958.667 265.539C927.463 275.785 844.856 278.412 764.068 206.932C663.083 117.583 400.669 123.348 311.477 91.6434C240.125 66.2796 211.476 20.8686 206.069 1.33337" stroke="#5B95D2" stroke-width="1.33333"/>
<path d="M958.667 134.955C935.636 140.137 874.671 141.465 815.045 105.315C740.515 60.1266 546.845 63.0419 481.019 47.0074C428.357 34.1798 407.213 11.2132 403.224 1.33337" stroke="#5B95D2" stroke-width="1.33333"/>
<path d="M958.667 341.459C923.375 354.652 829.948 358.032 738.579 266.013C624.367 150.988 327.581 158.409 226.708 117.594C146.008 84.9424 113.607 26.482 107.493 1.33337" stroke="#5B95D2" stroke-width="1.33333"/>
<path d="M958.667 210.875C930.92 219.003 857.469 221.085 785.636 164.395C695.843 93.5316 462.512 98.1035 383.207 72.9586C319.761 52.8426 294.288 16.8267 289.481 1.33337" stroke="#5B95D2" stroke-width="1.33333"/>
<path d="M958.667 68.1438C941.375 70.7352 895.597 71.3992 850.828 53.324C794.867 30.7299 649.449 32.1876 600.023 24.1704C560.483 17.7566 544.607 6.27329 541.611 1.33337" stroke="#5B95D2" stroke-width="1.33333"/>
</svg>
